<svg width="30" height="30" viewBox="0 0 30 30" version="1.1" xmlns="http://www.w3.org/2000/svg" xmlns:xlink="http://www.w3.org/1999/xlink">
<title>emoji-smile</title>
<desc>Created using Figma</desc>
<g id="Canvas" transform="translate(199 276)">
<g id="emoji-smile">
<g id="Ellipse 3">
<use xlink:href="#path0_fill" transform="translate(-199 -276)" fill="#FFCC4D"/>
</g>
<g id="Ellipse 3">
<use xlink:href="#path1_fill" transform="translate(-191 -271)" fill="#412C00"/>
</g>
<g id="Ellipse 3">
<use xlink:href="#path1_fill" transform="translate(-181 -271)" fill="#412C00"/>
</g>
<g id="Ellipse 3">
<use xlink:href="#path2_fill" transform="translate(-194 -258.527)" fill="#412C00"/>
</g>
<g id="Ellipse 3">
<use xlink:href="#path3_fill" transform="translate(-193 -258)" fill="#EFEFEF"/>
</g>
</g>
</g>
<defs>
<path id="path0_fill" d="M 30 15C 30 23.2843 23.2843 30 15 30C 6.71573 30 0 23.2843 0 15C 0 6.71573 6.71573 0 15 0C 23.2843 0 30 6.71573 30 15Z"/>
<path id="path1_fill" d="M 4 5C 4 7.76142 3.10457 10 2 10C 0.895431 10 0 7.76142 0 5C 0 2.23858 0.895431 0 2 0C 3.10457 0 4 2.23858 4 5Z"/>
<path id="path2_fill" d="M 19.8581 1.39213C 19.8581 6.3627 15.5228 10.3921 10 10.3921C 4.47715 10.3921 0 6.3627 0 1.39213C 0 -0.973424 4.47715 0.392099 10 0.392099C 15.5228 0.392099 19.8581 -0.972902 19.8581 1.39213Z"/>
<path id="path3_fill" d="M 17.9582 0.736201C 17.9582 1.98646 13.9475 3 9.00002 3C 4.05254 3 0.0418173 1.98646 0.0418173 0.736201C -0.485253 -0.75794 4.05254 0.484659 9.00002 0.484659C 13.9475 0.484659 18.485 -0.757953 17.9582 0.736201Z"/>
</defs>
</svg>
