<svg width="30" height="30" viewBox="0 0 30 30" version="1.1" xmlns="http://www.w3.org/2000/svg" xmlns:xlink="http://www.w3.org/1999/xlink">
<title>emoji-sad</title>
<desc>Created using Figma</desc>
<g id="Canvas" transform="translate(91 276)">
<g id="emoji-sad">
<g id="Ellipse 3">
<use xlink:href="#path0_fill" transform="translate(-91 -276)" fill="#F86666"/>
</g>
<g id="Ellipse 3">
<use xlink:href="#path1_fill" transform="translate(-86 -264)" fill="#412C00"/>
</g>
<g id="Ellipse 3">
<use xlink:href="#path2_fill" transform="translate(-81 -255)" fill="#412C00"/>
</g>
<g id="Ellipse 3">
<use xlink:href="#path1_fill" transform="matrix(-1 0 0 1 -65.5 -264)" fill="#412C00"/>
</g>
</g>
</g>
<defs>
<path id="path0_fill" d="M 30 15C 30 23.2843 23.2843 30 15 30C 6.71573 30 0 23.2843 0 15C 0 6.71573 6.71573 0 15 0C 23.2843 0 30 6.71573 30 15Z"/>
<path id="path1_fill" d="M 8.5 3C 8.5 4.65685 6.70914 3 4.5 3C 2.29086 3 0 5.65685 0 4C 0 2.34315 2.29086 0 4.5 0C 6.70914 0 8.5 1.34315 8.5 3Z"/>
<path id="path2_fill" d="M 10 4C 10 5.65685 7.20914 3 5 3C 2.79086 3 0 5.65685 0 4C 0 2.34315 2.79086 0 5 0C 7.20914 0 10 2.34315 10 4Z"/>
</defs>
</svg>
