<svg width="30" height="30" viewBox="0 0 30 30" version="1.1" xmlns="http://www.w3.org/2000/svg" xmlns:xlink="http://www.w3.org/1999/xlink">
<title>emoji-unsure</title>
<desc>Created using Figma</desc>
<g id="Canvas" transform="translate(145 276)">
<g id="emoji-unsure">
<g id="Ellipse 3">
<use xlink:href="#path0_fill" transform="translate(-145 -276)" fill="#F78E46"/>
</g>
<g id="Ellipse 3">
<use xlink:href="#path1_fill" transform="translate(-137 -265)" fill="#412C00"/>
</g>
<g id="Ellipse 3">
<use xlink:href="#path1_fill" transform="translate(-127 -265)" fill="#412C00"/>
</g>
<g id="Rectangle 3">
<use xlink:href="#path2_fill" transform="translate(-137 -256)" fill="#412C00"/>
</g>
</g>
</g>
<defs>
<path id="path0_fill" d="M 30 15C 30 23.2843 23.2843 30 15 30C 6.71573 30 0 23.2843 0 15C 0 6.71573 6.71573 0 15 0C 23.2843 0 30 6.71573 30 15Z"/>
<path id="path1_fill" d="M 4 3C 4 4.65685 3.10457 6 2 6C 0.895431 6 0 4.65685 0 3C 0 1.34315 0.895431 0 2 0C 3.10457 0 4 1.34315 4 3Z"/>
<path id="path2_fill" d="M 0 0L 14 0L 14 2L 0 2L 0 0Z"/>
</defs>
</svg>
